<?xml version="1.0" standalone="no"?>
<!DOCTYPE svg PUBLIC "-//W3C//DTD SVG 20010904//EN"
 "http://www.w3.org/TR/2001/REC-SVG-20010904/DTD/svg10.dtd">
<svg version="1.0" xmlns="http://www.w3.org/2000/svg"
 width="500.000000pt" height="500.000000pt" viewBox="0 0 500.000000 500.000000"
 preserveAspectRatio="xMidYMid meet">

<g transform="translate(0.000000,500.000000) scale(0.100000,-0.100000)"
fill="#000000" stroke="none">
<path d="M1570 3234 c0 -87 4 -133 10 -129 6 4 10 57 10 126 l0 119 910 0 910
0 0 -119 c0 -69 4 -122 10 -126 6 -4 10 42 10 129 l0 136 -930 0 -930 0 0
-136z"/>
<path d="M1654 2963 c-5 -29 -21 -51 -66 -92 -90 -82 -112 -142 -51 -140 26 1
23 3 -15 15 -26 8 27 78 101 134 17 13 18 6 16 -148 l-2 -162 -33 -6 c-39 -7
-37 -20 6 -29 l30 -7 0 -88 c0 -53 4 -92 11 -95 7 -5 9 21 7 84 -2 50 -2 91 0
91 1 0 48 -13 104 -30 97 -29 171 -41 123 -20 -11 5 -66 23 -122 40 -57 17
-103 34 -103 38 0 4 27 22 61 40 123 68 249 216 249 293 0 90 -129 122 -265
65 l-37 -16 6 35 c4 21 3 35 -3 35 -6 0 -13 -17 -17 -37z m263 -29 c59 -37 24
-133 -85 -236 -60 -56 -167 -126 -177 -116 -2 2 -1 75 3 163 l7 160 37 18 c74
36 167 41 215 11z"/>
<path d="M2641 2980 c-87 -31 -161 -87 -161 -122 0 -21 18 -23 73 -7 52 14 43
20 -12 8 -50 -11 -60 -7 -40 17 38 46 176 104 248 104 23 0 48 -8 62 -19 21
-17 22 -21 11 -60 -28 -93 -208 -272 -414 -412 -78 -53 -105 -79 -80 -79 4 0
75 11 158 25 82 14 189 28 237 32 48 3 90 10 93 15 3 4 -8 8 -24 8 -33 0 -300
-35 -375 -49 -26 -4 -47 -7 -47 -5 0 2 34 26 75 54 224 151 405 349 405 442 0
64 -100 87 -209 48z"/>
<path d="M2940 2958 c-62 -101 -93 -248 -93 -443 0 -149 7 -215 23 -215 4 0
11 17 15 38 11 62 63 215 81 241 l17 24 15 -49 c15 -53 37 -84 59 -84 7 0 31
16 53 36 22 20 42 35 43 33 1 -2 7 -13 13 -24 16 -29 35 -25 61 14 33 49 31
103 -4 130 -24 17 -26 22 -13 31 13 8 13 10 -1 10 -16 0 -42 -50 -53 -101 -3
-14 -26 -45 -52 -69 -41 -37 -48 -41 -61 -28 -8 9 -20 39 -26 68 -7 29 -18 55
-24 57 -18 6 -67 -77 -94 -159 l-24 -73 -3 87 -3 88 50 71 c79 111 122 250
100 316 -15 45 -52 46 -79 1z m58 -45 c5 -78 -62 -251 -113 -293 -13 -11 -14
-6 -9 36 17 143 79 321 107 311 7 -2 13 -26 15 -54z m220 -275 c17 -17 15 -54
-5 -95 -15 -32 -18 -34 -29 -18 -22 30 -11 125 14 125 5 0 13 -5 20 -12z"/>
<path d="M2065 2720 c4 -6 11 -8 16 -5 14 9 11 15 -7 15 -8 0 -12 -5 -9 -10z"/>
<path d="M1889 2648 c-16 -29 -17 -120 -2 -125 6 -2 25 19 41 47 26 46 31 50
37 31 7 -22 48 -30 60 -11 14 23 25 7 25 -39 0 -59 7 -81 27 -81 17 0 68 54
89 93 23 44 9 44 -19 0 -30 -47 -65 -79 -75 -69 -9 10 -8 115 2 144 6 14 4 22
-3 22 -6 0 -11 -6 -11 -14 0 -17 -46 -56 -66 -56 -8 0 -16 11 -20 25 -9 36
-19 31 -50 -25 -36 -66 -54 -53 -32 25 16 59 16 68 -3 33z"/>
<path d="M3302 2643 c-26 -67 -22 -137 7 -119 6 4 21 25 32 48 19 37 22 39 38
24 23 -21 37 -20 78 5 45 28 36 36 -11 8 -29 -17 -39 -19 -51 -9 -8 7 -15 19
-15 26 0 28 -17 13 -46 -38 l-29 -53 -3 43 c-2 28 3 53 13 68 8 13 11 24 6 24
-5 0 -13 -12 -19 -27z"/>
<path d="M1570 1890 l0 -260 930 0 930 0 0 260 c0 167 -4 260 -10 260 -6 0
-10 -92 -10 -255 l0 -255 -910 0 -910 0 0 255 c0 163 -4 255 -10 255 -6 0 -10
-93 -10 -260z"/>
<path d="M2010 1835 c0 -43 1 -45 30 -45 39 0 67 38 50 69 -8 15 -21 21 -45
21 -35 0 -35 0 -35 -45z m64 12 c9 -15 7 -21 -8 -33 -30 -21 -36 -17 -36 22 0
28 4 35 16 32 9 -2 22 -11 28 -21z"/>
<path d="M2150 1835 l0 -45 38 1 c30 2 32 3 10 6 -34 5 -37 30 -5 36 l22 4
-22 2 c-33 2 -29 29 5 34 22 3 20 4 -10 6 l-38 1 0 -45z"/>
<path d="M2270 1875 c0 -13 33 -85 40 -85 10 0 44 79 37 87 -4 3 -12 -8 -18
-25 -14 -40 -26 -41 -34 -2 -4 17 -11 30 -16 30 -5 0 -9 -2 -9 -5z"/>
<path d="M2410 1835 l0 -45 38 1 c35 1 35 2 8 8 -40 8 -46 31 -9 32 27 1 27 1
4 8 -35 9 -37 29 -4 34 27 4 27 4 -4 6 -33 1 -33 0 -33 -44z"/>
<path d="M2530 1835 c0 -44 0 -45 33 -44 23 1 26 3 10 6 -19 4 -23 11 -23 44
0 21 -4 39 -10 39 -5 0 -10 -20 -10 -45z"/>
<path d="M2654 1872 c-33 -23 -12 -82 30 -82 28 0 46 18 46 45 0 37 -44 59
-76 37z m54 -14 c16 -16 15 -23 -4 -42 -12 -12 -20 -13 -35 -6 -10 6 -19 16
-19 23 0 16 20 37 35 37 6 0 16 -5 23 -12z"/>
<path d="M2790 1836 c0 -25 5 -46 10 -46 6 0 10 6 10 14 0 8 10 16 23 18 16 2
22 10 22 28 0 21 -5 26 -32 28 -33 3 -33 3 -33 -42z m55 14 c0 -8 -8 -16 -17
-18 -13 -2 -18 3 -18 18 0 15 5 20 18 18 9 -2 17 -10 17 -18z"/>
<path d="M2921 1833 c1 -26 3 -40 6 -30 5 21 31 23 39 2 11 -27 19 -15 19 28
0 40 -1 42 -32 45 l-33 3 1 -48z m54 17 c0 -8 -10 -16 -22 -18 -18 -3 -23 2
-23 18 0 16 5 21 23 18 12 -2 22 -10 22 -18z"/>
</g>
</svg>
